<svg width="292" height="303" viewBox="0 0 292 303" fill="none" xmlns="http://www.w3.org/2000/svg">
<rect width="292" height="303" rx="119" fill="#C4FF00"/>
<path d="M132.937 241.917H92.25C87.454 241.917 82.8544 240.011 79.4631 236.62C76.0719 233.229 74.1667 228.629 74.1667 223.833V79.1667C74.1667 74.3707 76.0719 69.7711 79.4631 66.3798C82.8544 62.9885 87.454 61.0833 92.25 61.0833H164.583M164.583 61.0833C167.449 61.0763 170.287 61.6368 172.934 62.7324C175.582 63.828 177.986 65.4371 180.008 67.4668L212.45 99.9083C214.48 101.931 216.089 104.335 217.184 106.982C218.28 109.63 218.84 112.468 218.833 115.333M164.583 61.0833V106.292C164.583 108.69 165.536 110.989 167.232 112.685C168.927 114.381 171.227 115.333 173.625 115.333H218.833M218.833 115.333V169.583" stroke="black" stroke-width="13" stroke-linecap="round" stroke-linejoin="round"/>
<path d="M104.32 217.768C101.472 217.768 99.104 217.304 97.216 216.376C95.328 215.416 93.84 214.04 92.752 212.248C91.664 210.456 90.88 208.296 90.4 205.768C89.952 203.24 89.728 200.392 89.728 197.224L99.904 196.264C99.904 197.8 99.952 199.288 100.048 200.728C100.176 202.136 100.384 203.416 100.672 204.568C100.992 205.688 101.44 206.584 102.016 207.256C102.624 207.928 103.392 208.264 104.32 208.264C105.856 208.264 106.944 207.56 107.584 206.152C108.224 204.712 108.544 202.984 108.544 200.968C108.544 198.952 108.016 196.856 106.96 194.68C105.904 192.504 104.64 190.44 103.168 188.488C100.672 185.16 98.48 182.072 96.592 179.224C94.736 176.376 93.28 173.576 92.224 170.824C91.2 168.072 90.688 165.192 90.688 162.184C90.688 159.816 90.992 157.64 91.6 155.656C92.208 153.64 93.088 151.896 94.24 150.424C95.424 148.92 96.848 147.752 98.512 146.92C100.176 146.088 102.08 145.672 104.224 145.672C106.88 145.672 109.12 146.12 110.944 147.016C112.8 147.912 114.288 149.192 115.408 150.856C116.56 152.52 117.392 154.504 117.904 156.808C118.448 159.08 118.72 161.608 118.72 164.392L108.544 165.352C108.544 164.168 108.48 162.984 108.352 161.8C108.256 160.584 108.064 159.48 107.776 158.488C107.488 157.496 107.072 156.696 106.528 156.088C105.984 155.48 105.28 155.176 104.416 155.176C103.072 155.176 102.144 155.752 101.632 156.904C101.12 158.024 100.864 159.624 100.864 161.704C100.864 164.392 101.584 166.984 103.024 169.48C104.464 171.976 106.4 174.888 108.832 178.216C111.744 182.152 114.112 185.768 115.936 189.064C117.792 192.36 118.72 196.008 118.72 200.008C118.72 202.536 118.448 204.888 117.904 207.064C117.36 209.208 116.496 211.08 115.312 212.68C114.16 214.28 112.672 215.528 110.848 216.424C109.056 217.32 106.88 217.768 104.32 217.768ZM124.278 217V146.44H134.646V175.624H142.71V146.44H153.078V217H142.71V186.28H134.646V217H124.278ZM160.746 217V146.44H171.114V217H160.746ZM185.752 217V157.096H175.96V146.44H205.912V157.096H196.12V217H185.752Z" fill="black"/>
</svg>
